<svg width="126" height="127" viewBox="0 0 126 127" fill="none" xmlns="http://www.w3.org/2000/svg">
<path d="M48.2475 71.9519L36.9075 93.8969V99.8819L89.355 100.144L88.8825 91.3244L76.9125 71.9519H48.2475Z" fill="#FADC9C"/>
<path d="M90.8218 100.745C90.7987 97.2434 90.9363 92.047 89.8831 90.2714C89.0516 88.8697 87.255 87.3314 86.1861 85.7533C83.7543 82.1644 82.7001 77.9465 80.7345 74.1571C79.3873 71.5594 77.4018 70.0442 74.4303 69.8416H51.7881C49.183 69.8416 46.8153 71.3672 45.4933 73.609L41.5474 82.6033L41.1663 81.6866C40.909 81.1963 40.3809 80.9306 39.8706 80.7805C39.1041 80.5558 35.7903 80.3773 35.1466 80.6419C34.3518 80.9684 34.6605 83.1997 34.8715 83.8738C35.4952 85.874 37.4031 86.0389 39.2217 86.0284C37.5438 88.2922 35.5068 89.9249 35.2527 92.9436C35.1351 94.3349 35.1403 95.785 35.1781 97.2518C35.1739 97.2959 35.1718 97.34 35.1718 97.3841V104.105C35.1718 105.098 36.1105 105.903 37.2676 105.903H37.633V109.381C37.633 110.995 38.9413 112.305 40.5562 112.305H43.87C45.4839 112.305 46.7932 110.996 46.7932 109.381V105.903H79.0671V109.381C79.0671 110.995 80.3754 112.305 81.9903 112.305H85.3041C86.9179 112.305 88.2273 110.996 88.2273 109.381V105.903H88.704C89.8611 105.903 90.7998 105.097 90.7998 104.105V100.744H90.8229L90.8218 100.745ZM86.709 94.3202C86.709 96.5158 84.9292 98.2945 82.7347 98.2945C80.5402 98.2945 78.7605 96.5147 78.7605 94.3202C78.7605 92.1257 80.5402 90.346 82.7347 90.346C84.9292 90.346 86.709 92.1257 86.709 94.3202ZM44.9872 83.3047C44.9967 83.27 45.0093 83.2375 45.0229 83.2049C46.1107 80.5978 47.0767 77.7785 48.3283 75.2123C48.8344 74.1749 49.6881 73.5407 50.8263 73.3286L74.7589 73.2877C75.9444 73.3958 76.9965 74.1056 77.5876 75.1147C78.6135 77.5853 80.0079 80.5106 80.7828 82.7366C81.1881 83.9021 80.662 84.6823 79.4167 84.802L46.4236 84.7348C46.0299 84.7348 45.6477 84.5899 45.3568 84.3232C45.0681 84.0586 44.8749 83.7299 44.9883 83.3057L44.9872 83.3047ZM43.1298 90.3313C45.3316 90.3313 47.1166 92.1163 47.1166 94.3181C47.1166 96.52 45.3316 98.3049 43.1298 98.3049C40.9279 98.3049 39.1429 96.52 39.1429 94.3181C39.1429 92.1163 40.9279 90.3313 43.1298 90.3313Z" fill="#134E1D"/>
<path d="M106.722 55.9731L106.038 51.3835L103.97 53.0803C97.5523 57.8148 85.8889 56.6356 82.0522 64.7101C79.9081 69.222 81.1965 74.0446 83.9244 77.9485C84.5691 70.3717 89.6343 64.2282 97.0011 62.3392C91.2933 66.0898 85.8375 70.7308 85.3629 78.084C85.302 79.0321 85.3114 80.2795 85.3629 81.2329C85.4458 82.7827 85.8511 84.2475 86.184 85.7511C87.2529 87.3292 89.0725 88.8538 89.881 90.2692C89.3644 87.5067 88.0866 84.8218 87.9616 81.9921C87.9228 81.1164 87.7485 79.6348 88.4362 79.0342C89.1429 78.4179 92.6258 77.9296 93.8196 77.5716C103.77 74.5875 107.299 65.7444 106.721 55.972L106.722 55.9731Z" fill="#85C266"/>
<path d="M28.66 49.8836H33.44C35.52 49.8836 35.96 48.5036 36.18 46.9636H36.46C36.22 48.9036 35.56 50.2636 33.36 50.2636H28.18V38.2636L25.3 38.0836V37.8836H28.66V49.8836ZM36.44 37.8836V41.2036H36.04V38.2636H29.46V43.6436H33.3V41.0836H33.7V44.1036H28.98V37.8836H36.44ZM36.24 50.5836L36.72 46.9636H37.12L36.6 50.9836H25.3V50.5836H36.24ZM27.4 38.5236L27.86 38.5836V50.2636H25.3V50.0636L27.4 49.8836V38.5236ZM33.7 47.1836H33.3V44.9036H29.46V49.5636H28.98V44.4236H33.7V47.1836ZM36.44 37.1636V37.5636H25.3V37.1636H36.44ZM35.72 41.2036H35.52L35.3 38.5836H35.72V41.2036ZM32.98 43.3236H32.54L32.78 41.0836H32.98V43.3236ZM32.98 47.1836H32.78L32.54 45.2236H32.98V47.1836ZM35.98 50.3036H34.84V50.2636C35.42 50.0436 35.9 49.6036 36.16 49.0036H36.2L35.98 50.3036ZM38.9148 46.0836C38.9148 48.5636 40.2748 50.8636 43.0548 50.8636C44.6148 50.8636 45.5148 50.1436 46.1348 49.5236L46.4748 49.8436C45.7948 50.5636 44.6548 51.1836 43.0548 51.1836C40.1548 51.1836 38.4148 49.1236 38.4148 46.0836C38.4148 42.9036 40.3348 40.9236 43.0548 40.9236C44.8748 40.9236 46.3348 41.8236 46.3348 43.2636C46.3348 44.1236 45.8148 44.7236 45.1148 44.7236C44.6948 44.7236 44.1148 44.5036 44.1148 43.7436C44.1148 43.2836 44.3348 42.9836 44.3348 42.9436L44.6548 43.2436C44.6548 43.2436 44.5548 43.5036 44.5548 43.7436C44.5548 44.1236 44.7948 44.2836 45.1148 44.2836C45.5948 44.2836 45.9148 43.9036 45.9148 43.3036C45.9148 42.0836 44.5748 41.2436 42.9948 41.2436C40.3948 41.2436 38.9148 43.5036 38.9148 46.0836ZM45.1548 43.9636C44.9548 43.9636 44.8948 43.8236 44.8948 43.6636C44.8948 43.4636 44.9948 43.4436 44.9948 43.2236C44.9948 42.4236 43.7748 41.8436 42.8148 41.8436C41.0348 41.8436 39.7348 43.7836 39.7348 46.1436C39.7348 47.2636 40.0348 49.2836 41.4748 50.2036C39.6948 49.4236 39.2548 47.5436 39.2548 46.0636C39.2548 43.3036 40.7748 41.5236 42.8748 41.5236C44.1348 41.5236 45.5548 42.1436 45.5548 43.3236C45.5548 43.6836 45.4148 43.9636 45.1548 43.9636ZM45.5948 48.9836L45.9748 49.3236C45.3548 50.0236 44.4148 50.5436 43.3348 50.5436C41.2948 50.5436 40.0748 48.6236 40.0748 46.2236C40.0748 44.6836 40.5748 43.4636 41.2948 42.8436C40.8148 43.6036 40.5748 44.7836 40.5748 45.9436C40.5748 48.2636 41.5548 50.2236 43.3548 50.2236C44.2948 50.2236 45.0748 49.6836 45.5948 48.9836ZM56.3503 46.1036C56.3503 48.6036 55.0303 50.5436 52.8503 50.5436C50.7103 50.5436 49.4303 48.6436 49.4303 46.0636C49.4303 44.6636 49.8103 43.3236 50.5303 42.7636C50.0503 43.5436 49.9303 44.8636 49.9303 45.7436C49.9303 48.2836 50.9503 50.2236 52.8503 50.2236C54.8103 50.2236 55.8703 48.1636 55.8703 45.9436C55.8703 44.5636 55.4503 42.8236 54.1903 41.9636C55.7703 42.6436 56.3503 44.4436 56.3503 46.1036ZM52.4703 40.9236C55.4103 40.9236 57.2303 42.9036 57.2303 46.0036C57.2303 49.1436 55.3503 51.1836 52.4703 51.1836C49.6103 51.1836 47.7703 49.1636 47.7703 46.0036C47.7703 42.8836 49.5303 40.9236 52.4703 40.9236ZM52.4903 50.8636C55.2303 50.8636 56.6903 48.6236 56.6903 46.0036C56.6903 43.5636 55.4303 41.2436 52.4703 41.2436C49.5303 41.2436 48.2703 43.5236 48.2703 45.9836C48.2703 48.6236 49.7303 50.8636 52.4903 50.8636ZM48.6103 45.9436C48.6103 43.3236 49.9303 41.5636 52.0903 41.5636C54.2503 41.5636 55.5503 43.3236 55.5503 45.8036C55.5503 47.1436 55.1703 48.6436 54.4103 49.2836C54.8703 48.4036 55.0303 46.8836 55.0303 45.9836C55.0303 43.6836 54.0103 41.8836 52.0903 41.8836C50.1303 41.8836 49.0903 43.7636 49.0903 45.9836C49.0903 47.3236 49.4703 49.2836 50.9103 50.2036C49.1103 49.4436 48.6103 47.5636 48.6103 45.9436ZM67.3111 44.0036L66.7311 43.7636C68.3711 43.1836 69.0511 42.2236 69.0511 40.8636C69.0511 39.1636 68.0111 37.5636 64.9511 37.5636H58.1711V37.1636H64.9511C68.0311 37.1636 69.5711 38.7036 69.5711 40.7836C69.5711 42.3436 68.6911 43.3236 67.3111 44.0036ZM66.3711 43.6036L65.7711 43.3436C67.5911 42.9036 68.2511 41.9436 68.2511 40.7236C68.2511 39.8436 67.9111 38.7036 66.7111 38.0836C67.8711 38.3636 68.7111 39.5036 68.7111 40.8036C68.7111 42.0436 67.9511 43.0236 66.3711 43.6036ZM64.3111 50.2636H61.0511V38.2636L58.1711 38.0836V37.8836H61.5311V49.8836L64.3111 50.0636V50.2636ZM60.2711 38.5236L60.7311 38.5836V50.2636H58.1711V50.0636L60.2711 49.8836V38.5236ZM58.1711 50.9836V50.5836H64.3111V50.9836H58.1711ZM68.1311 47.9836C68.1311 48.8836 68.3511 49.8236 69.2311 50.3436C68.0911 50.0436 67.6711 49.0836 67.6711 48.0236C67.6711 46.7236 67.3711 45.4636 66.0911 44.6636C67.6311 45.2636 68.1311 46.7636 68.1311 47.9836ZM61.8511 44.1036V37.8836H64.4511C67.1111 37.8836 67.9111 39.4236 67.9111 40.7036C67.9111 41.8236 67.2911 42.4836 66.3111 42.9036C66.9711 42.3636 67.3911 41.6036 67.3911 40.7836C67.3911 39.8836 66.8711 38.2636 64.4711 38.2636H62.3311V43.6436H64.0711C66.4911 43.6436 68.9111 44.6636 68.9111 47.6636C68.9111 48.5436 69.0511 50.0636 70.1511 50.0636H70.8711V50.3436H70.1711C68.5911 50.3436 68.5111 48.7236 68.4511 47.7036C68.2911 44.9436 66.3311 44.1036 63.9711 44.1036H61.8511ZM70.8711 51.0436H70.1111C67.9711 51.0436 67.0311 50.0436 66.8311 48.0236C66.7111 46.8036 66.5311 44.9036 63.8911 44.9036H62.3311V49.6236L61.8511 49.5636V44.4236H63.7511C66.9111 44.4236 67.1311 46.4436 67.3311 48.1436C67.4711 49.3236 67.6511 50.6636 70.0711 50.6636H70.8711V51.0436ZM73.83 38.4436C73.83 38.2636 73.95 38.1236 74.13 38.1236C74.29 38.1236 74.45 38.2436 74.45 38.4436C74.45 38.6436 74.29 38.7636 74.13 38.7636C73.95 38.7636 73.83 38.6236 73.83 38.4436ZM71.65 41.6036H74.37V49.9036L76.69 50.0836V50.2636H73.95V42.0036H71.65V41.6036ZM73.61 50.2636H71.63V50.0836L73.13 49.9036V42.3036H73.61V50.2636ZM74.71 41.3236H71.65V41.1236L75.21 40.9236V49.6436L74.71 49.5836V41.3236ZM74.13 39.0836C74.49 39.0836 74.75 38.8036 74.75 38.4436C74.75 38.0836 74.49 37.8036 74.13 37.8036C73.77 37.8036 73.49 38.0636 73.49 38.4436C73.49 38.8236 73.77 39.0836 74.13 39.0836ZM71.63 50.5836H76.69V50.9836H71.63V50.5836ZM74.13 37.3836C74.75 37.3836 75.19 37.8636 75.19 38.4436C75.19 39.0436 74.75 39.5036 74.15 39.5036C73.55 39.5036 73.07 39.0636 73.07 38.4436C73.07 37.8236 73.55 37.3836 74.13 37.3836ZM84.7894 37.8836H85.2694V41.7236L84.7894 41.3836V37.8836ZM83.0494 37.1636H86.0494V49.9036H88.7694V50.2636H85.5894V37.5636H83.0494V37.1636ZM86.3694 36.8836H83.0494V36.6836L86.8494 36.4836V49.5836H86.3694V36.8836ZM85.5894 50.5836H88.7694V50.7836L85.5894 50.9836V50.5836ZM85.2694 43.3036V46.7236C85.2694 49.3036 83.8294 50.4636 82.2294 50.4636C80.2694 50.4636 79.4694 48.7036 79.4694 46.3836C79.4694 44.4236 80.0294 43.1636 80.7094 42.6836C80.2294 43.5836 79.9694 45.0036 79.9694 46.3036C79.9694 48.3436 80.6094 50.0636 82.2894 50.0636C83.7494 50.0636 84.7894 48.8036 84.7894 46.7036V43.3636C84.1494 42.4236 83.5494 41.8836 82.3294 41.8836C79.9294 41.8836 79.1494 44.0436 79.1494 46.1636C79.1494 47.6836 79.5494 49.4236 80.5494 50.2436C79.1294 49.5836 78.6294 47.8436 78.6294 46.1236C78.6294 43.5836 79.7494 41.5636 82.2494 41.5636C83.6294 41.5636 84.5094 42.1436 85.2694 43.3036ZM85.2894 42.2036V42.7836C84.8094 42.1236 84.1894 41.2436 82.3894 41.2436C79.5694 41.2436 78.3094 43.4436 78.3094 46.1436C78.3094 48.5436 79.2894 50.7836 81.9694 50.7836C83.4894 50.7836 84.7094 50.0836 85.2694 48.7436C85.1494 50.3036 83.8894 51.1836 82.0494 51.1836C79.3094 51.1836 77.8094 49.2036 77.8094 46.1436C77.8094 42.9236 79.4894 40.9236 82.2294 40.9236C83.9094 40.9236 84.7894 41.6836 85.2894 42.2036ZM92.0853 46.0036H97.4853C97.4853 46.0036 97.5053 45.9236 97.5053 45.5636C97.5053 43.8636 97.0053 41.2436 93.8453 41.2436C91.1653 41.2436 90.0453 43.5236 90.0453 45.9836C90.0453 48.6436 91.4053 50.8636 94.1653 50.8636C95.5253 50.8636 96.6253 50.3036 97.5053 49.2436L97.8453 49.5636C96.9053 50.6436 95.5853 51.1836 94.1453 51.1836C91.2653 51.1836 89.5453 49.1836 89.5453 45.9836C89.5453 42.9036 91.1053 40.9236 93.8653 40.9236C97.0453 40.9236 98.0053 43.1636 98.0053 45.3436C98.0053 45.9436 97.9453 46.3836 97.9253 46.4636H92.0853V46.0036ZM96.3253 44.9636H95.8053C95.7453 43.6436 95.6853 41.8836 93.7653 41.8836C91.9253 41.8836 90.8653 43.7636 90.8653 46.0436C90.8653 47.4436 91.3053 49.3036 92.4853 50.2636C90.9453 49.4636 90.3853 47.6836 90.3853 45.9636C90.3853 43.3236 91.7253 41.5636 93.7853 41.5636C96.1253 41.5636 96.2053 43.4036 96.3253 44.9636ZM97.0053 48.7236L97.3453 49.0636C96.5253 50.0436 95.4453 50.5436 94.4253 50.5436C92.3653 50.5436 91.2053 48.8436 91.2053 46.1036C91.2053 44.5636 91.6053 43.2836 92.3053 42.7636C91.8453 43.5036 91.7053 44.9636 91.7053 46.0036C91.7053 48.9436 92.7653 50.2236 94.3653 50.2236C95.1453 50.2236 96.1853 49.7436 97.0053 48.7236ZM92.0853 45.2436H96.6653C96.6253 43.7436 96.3253 42.8036 95.9053 42.2036C96.6653 42.7036 97.1453 44.1036 97.1853 45.7236H92.0853V45.2436Z" fill="#134E1D"/>
</svg>
